<?xml version="1.0" standalone="no"?>
<!DOCTYPE svg PUBLIC "-//W3C//DTD SVG 20010904//EN"
 "http://www.w3.org/TR/2001/REC-SVG-20010904/DTD/svg10.dtd">
<svg version="1.0" xmlns="http://www.w3.org/2000/svg"
 width="413.000000pt" height="248.000000pt" viewBox="0 0 413.000000 248.000000"
 preserveAspectRatio="xMidYMid meet">

<g transform="translate(0.000000,248.000000) scale(0.100000,-0.100000)"
fill="#000000" stroke="none">
<path d="M3870 2203 c0 -10 -9 -94 -20 -188 -11 -93 -53 -460 -95 -815 -41
-355 -77 -662 -80 -683 l-5 -39 44 32 c24 18 57 46 74 63 33 35 22 -36 137
912 14 110 34 277 45 370 33 268 36 253 -51 326 -40 33 -49 37 -49 22z"/>
<path d="M176 2174 c-19 -21 -40 -49 -48 -62 -14 -27 -22 36 123 -954 l83
-568 54 -46 c29 -25 56 -44 58 -41 3 3 -38 324 -91 714 -53 389 -106 771 -116
847 -11 77 -21 141 -24 144 -2 2 -20 -13 -39 -34z"/>
<path d="M41 1903 c-45 -230 -38 -525 20 -758 22 -92 162 -428 167 -403 2 9
-9 99 -23 200 -15 101 -28 197 -30 213 -31 246 -110 792 -115 798 -4 4 -12
-18 -19 -50z"/>
<path d="M4046 1940 c-10 -49 -128 -1140 -124 -1157 4 -24 61 76 88 157 43
127 80 293 91 407 14 144 7 353 -16 488 -20 114 -31 143 -39 105z"/>
<path d="M965 1791 c-86 -30 -184 -98 -222 -155 -15 -23 -31 -44 -35 -47 -5
-3 -19 -34 -33 -69 -44 -112 -43 -154 19 -582 31 -213 61 -399 66 -413 27 -72
94 -165 148 -208 103 -81 293 -165 512 -226 197 -55 346 -71 651 -71 273 0
404 18 659 92 236 68 401 150 507 252 65 63 78 82 110 161 34 84 39 112 80
435 48 379 50 456 14 549 -33 82 -92 160 -163 216 -7 6 -42 25 -77 43 l-64 32
-1076 -1 c-592 -1 -1085 -4 -1096 -8z m262 -628 c7 -18 16 -31 44 -61 8 -9 23
-30 34 -47 l18 -29 14 21 c8 12 26 34 39 50 14 15 32 40 42 56 11 19 25 27 44
27 l27 0 3 -130 3 -130 -34 0 -33 0 3 85 c3 69 2 82 -8 68 -81 -119 -114 -146
-128 -104 -3 10 -19 31 -35 47 -16 16 -30 35 -30 42 0 6 -4 12 -10 12 -6 0
-10 -32 -10 -75 l0 -75 -30 0 -30 0 0 130 0 130 35 0 c25 0 38 -5 42 -17z
m544 -75 c12 -24 39 -69 60 -100 22 -32 39 -60 39 -63 0 -3 -16 -5 -35 -5 -24
0 -39 6 -47 20 -11 17 -24 20 -75 20 -52 0 -65 -3 -75 -20 -13 -21 -78 -29
-78 -10 0 6 4 10 8 10 4 0 23 29 42 65 19 36 37 65 41 65 4 0 12 14 18 30 8
26 15 30 45 30 32 0 38 -5 57 -42z m394 -23 l0 -60 -33 -3 -33 -3 48 -37 48
-37 -42 -3 c-30 -2 -47 2 -61 15 -39 38 -77 63 -94 63 -14 0 -18 -8 -18 -40 0
-38 -2 -40 -30 -40 l-30 0 0 105 0 106 123 -3 122 -3 0 -60z m119 28 c10 -21
28 -51 41 -67 l23 -29 24 39 c13 21 30 51 37 67 11 21 21 27 48 27 29 0 32 -2
23 -17 -6 -10 -23 -39 -38 -64 -76 -129 -76 -129 -102 -129 -17 0 -30 9 -40
30 -32 63 -94 165 -104 172 -6 4 7 8 30 8 38 0 42 -3 58 -37z m316 -68 l0
-105 -27 0 -28 0 0 105 0 105 28 0 27 0 0 -105z m166 87 c10 -10 47 -39 82
-65 l62 -48 0 65 c0 64 1 66 25 66 l25 0 0 -108 0 -109 -29 5 c-16 2 -45 21
-67 43 -21 21 -42 39 -46 39 -5 0 -18 9 -30 20 -12 11 -25 20 -30 20 -4 0 -8
-27 -8 -60 0 -59 -1 -60 -27 -60 l-28 0 -1 105 0 105 26 0 c14 0 35 -8 46 -18z"/>
<path d="M1692 1043 l-20 -43 39 0 c41 0 51 16 26 42 -8 7 -16 20 -19 28 -3
10 -12 0 -26 -27z"/>
<path d="M1980 1065 c0 -24 2 -25 66 -25 62 0 65 1 62 23 -3 20 -9 22 -65 25
-62 3 -63 2 -63 -23z"/>
</g>
</svg>
